<?xml version="1.0" encoding="UTF-8" standalone="no"?>
<!-- Created with Inkscape (http://www.inkscape.org/) -->

<svg
   width="291.83542mm"
   height="30.1625mm"
   viewBox="0 0 291.83542 30.1625"
   version="1.1"
   id="svg1"
   xml:space="preserve"
   inkscape:version="1.4 (e7c3feb100, 2024-10-09)"
   sodipodi:docname="title.svg"
   xmlns:inkscape="http://www.inkscape.org/namespaces/inkscape"
   xmlns:sodipodi="http://sodipodi.sourceforge.net/DTD/sodipodi-0.dtd"
   xmlns="http://www.w3.org/2000/svg"
   xmlns:svg="http://www.w3.org/2000/svg"><sodipodi:namedview
     id="namedview1"
     pagecolor="#ffffff"
     bordercolor="#666666"
     borderopacity="1.0"
     inkscape:showpageshadow="2"
     inkscape:pageopacity="0.0"
     inkscape:pagecheckerboard="0"
     inkscape:deskcolor="#d1d1d1"
     inkscape:document-units="mm"
     inkscape:zoom="0.85037172"
     inkscape:cx="543.29182"
     inkscape:cy="225.19564"
     inkscape:window-width="1920"
     inkscape:window-height="1005"
     inkscape:window-x="0"
     inkscape:window-y="38"
     inkscape:window-maximized="1"
     inkscape:current-layer="layer1" /><defs
     id="defs1" /><g
     inkscape:label="Layer 1"
     inkscape:groupmode="layer"
     id="layer1"
     transform="translate(22.17507,-85.425739)"><rect
       style="color:#000000;overflow:visible;fill:#ffffff;fill-opacity:1;stroke:#216c25;stroke-width:0.365001;stroke-linecap:round;stroke-linejoin:round"
       id="rect1"
       width="288.73648"
       height="27.069044"
       x="-20.535137"
       y="86.807625" /><path
       style="fill:#000000"
       d="M -22.17507,100.50699 V 85.425739 h 145.91771 145.91771 v 15.081251 15.08125 H 123.74264 -22.17507 Z m 88.577775,9.64388 c 2.478445,-1.03373 3.453979,-2.9314 4.321873,-8.40718 0.303857,-1.917111 0.712471,-3.871851 0.908033,-4.343851 0.321832,-0.77677 0.30836,-0.88346 -0.141993,-1.12448 -0.647005,-0.34627 -1.938623,-0.34168 -2.28843,0.008 -0.189499,0.1895 -0.497765,0.1895 -0.996183,0 -1.648238,-0.62666 -3.809774,-0.0518 -5.089231,1.35348 -1.283109,1.40929 -1.801048,2.886011 -1.808616,5.156611 -0.0086,2.58174 0.405201,3.26966 1.966799,3.26966 1.114679,0 2.245891,-0.73952 3.479974,-2.27499 l 0.829672,-1.0323 -0.181938,1.5875 c -0.485975,4.24037 -2.922073,5.80781 -5.312011,3.41787 l -0.89884,-0.89884 -0.713086,0.61337 c -1.265632,1.08865 -0.590917,2.06548 2.012875,2.91417 0.858347,0.27977 2.977639,0.15019 3.911102,-0.23915 z m -2.003157,-8.42367 c 0.157181,-2.449211 0.799592,-3.697941 1.96173,-3.813251 0.503376,-0.0499 1.039565,0.11613 1.442342,0.44672 l 0.641108,0.52621 -0.778346,1.506481 c -0.913989,1.76901 -2.265911,3.28863 -2.925711,3.28863 -0.414929,0 -0.452688,-0.21638 -0.341123,-1.95479 z m 124.761322,8.66719 c 0.47987,-0.1286 0.59459,-0.34596 0.59159,-1.12086 -0.002,-0.52873 0.37813,-2.95563 0.84485,-5.3931 l 0.84858,-4.431771 h 1.15692 c 1.59269,0 2.69453,-0.61957 2.70558,-1.52136 0.003,-0.23148 -0.51834,-0.33073 -1.73677,-0.33073 h -1.74081 l 0.17929,-0.85989 c 0.36948,-1.77214 1.4175,-2.63446 2.49859,-2.05587 0.29654,0.1587 0.53916,0.46295 0.53916,0.67611 0,0.51336 0.22872,0.48812 1.25678,-0.1387 0.96016,-0.58542 1.01606,-0.74652 0.50267,-1.44863 -0.45916,-0.62793 -2.77813,-0.8445 -4.39137,-0.41009 -1.48227,0.39913 -2.78745,1.68782 -3.17787,3.13772 -0.25093,0.93192 -0.43231,1.14392 -1.09143,1.27574 -0.79784,0.15957 -1.30086,0.75429 -1.30086,1.538 0,0.34151 0.17895,0.39269 0.90005,0.25741 l 0.90005,-0.16885 -1.06716,5.181021 c -0.86879,4.21793 -1.00549,5.25534 -0.73536,5.58082 0.34391,0.41439 1.28695,0.50922 2.31752,0.23303 z M 3.7888916,106.57851 c 0.33026,-2.32659 2.90397,-7.558961 3.86781,-7.863281 0.48602,-0.15345 0.41877,1.305651 -0.19843,4.305301 -0.64299,3.12496 -0.65667,3.7862 -0.0913,4.41094 0.48572,0.53672 1.296456,0.61612 2.319475,0.22717 0.6102494,-0.23202 0.6480254,-0.32738 0.3930534,-0.99219 -0.3070184,-0.80051 -0.2474384,-1.39086 0.581588,-5.76259 0.622996,-3.285261 0.48119,-4.227781 -0.6799294,-4.519211 -1.432047,-0.35942 -2.889477,0.51997 -4.146327,2.50181 -0.89834,1.416531 -0.89747,1.423331 -0.24569,-1.93606 0.58402,-3.01012 0.45478,-3.58716 -0.80342,-3.58716 -1.32177,0 -1.82513,0.42165 -1.8273,1.53066 -10e-4,0.54059 -0.43522,3.06648 -0.9648,5.613091 -1.51348996,7.27798 -1.49665996,7.5052 0.54502,7.35529 1.06403,-0.0781 1.08167,-0.0962 1.25024,-1.28377 z m 15.2360524,0.58184 c 1.172827,-0.59888 1.799623,-1.41646 1.561553,-2.03685 -0.11311,-0.29477 -0.402536,-0.2339 -1.435068,0.3018 -2.457109,1.27479 -4.14457,0.65454 -3.967346,-1.45825 0.06621,-0.78936 0.189222,-0.95806 0.740853,-1.01601 2.10836,-0.22152 4.143663,-1.28774 4.800325,-2.51473 0.921083,-1.721061 0.68768,-3.735931 -0.484393,-4.181551 -1.65906,-0.63077 -3.719913,-0.0477 -5.405993,1.52939 -1.704155,1.59403 -2.650265,3.563641 -2.814514,5.859231 -0.153846,2.1502 0.327868,3.31995 1.606593,3.90128 1.187693,0.53994 3.976841,0.34137 5.39799,-0.38431 z m -3.510043,-6.32263 c 0.363599,-1.498921 1.247645,-2.977491 1.874295,-3.134771 0.851696,-0.21376 1.181573,0.0516 1.181573,0.95035 0,1.29699 -0.471005,2.120971 -1.445027,2.527951 -1.43464,0.59943 -1.81966,0.51732 -1.610841,-0.34353 z m 18.908637,6.56579 c 0.788137,-0.14516 1.536874,-0.36783 1.663859,-0.49481 0.126985,-0.12699 0.513504,-1.47049 0.858931,-2.98557 0.345426,-1.51507 0.710756,-2.96304 0.811844,-3.2177 0.16397,-0.41308 -0.0066,-0.46302 -1.581698,-0.46302 -2.088754,0 -2.636919,0.24129 -3.015537,1.32739 l -0.282158,0.8094 0.944458,-0.17718 0.944458,-0.17718 -0.193084,0.89472 c -0.518015,2.40039 -0.731349,2.7419 -1.766546,2.82797 -0.80602,0.067 -1.054441,-0.0382 -1.424698,-0.60326 -0.616324,-0.94063 -0.387207,-4.9116 0.416225,-7.213871 0.785802,-2.25175 1.743328,-3.24424 3.129943,-3.24424 0.907301,0 1.187968,0.14708 1.893311,0.99218 l 0.828102,0.99219 0.645055,-0.79375 c 0.938406,-1.15472 0.851467,-1.92623 -0.26986,-2.39475 -4.723543,-1.97362 -10.194957,3.35097 -10.194957,9.921381 0,2.11142 0.586398,3.3826 1.874522,4.06354 0.941372,0.49764 1.729114,0.48705 4.71783,-0.0634 z m 8.061444,-0.76179 c 0.419744,-0.39092 1.104353,-1.2401 1.521354,-1.88705 l 0.758184,-1.17628 v 1.55232 c 0,1.83406 0.464895,2.52003 1.707882,2.52003 1.230865,0 1.473058,-0.39086 1.297984,-2.09476 -0.163181,-1.58814 0.422329,-5.624151 1.128384,-7.778111 0.229669,-0.70065 0.338941,-1.35255 0.242827,-1.44866 -0.09611,-0.0961 -0.673791,-0.15599 -1.283727,-0.13306 -0.609937,0.0229 -1.3471,0.0507 -1.638142,0.0618 -0.291042,0.011 -1.03193,-0.0526 -1.646418,-0.14148 -2.262494,-0.32718 -4.577908,1.63993 -5.790823,4.919721 -0.647841,1.75179 -0.653528,5.32777 -0.0096,6.04132 0.913139,1.01187 2.337255,0.84469 3.712103,-0.43576 z m -0.983657,-1.54862 c -0.300387,-0.30039 -0.188555,-2.53244 0.200014,-3.99207 0.787895,-2.959671 1.929498,-3.867371 3.404601,-2.707061 l 0.709371,0.55799 -0.691903,1.372831 c -0.945958,1.8769 -2.943633,4.9447 -3.219871,4.9447 -0.124203,0 -0.305198,-0.0794 -0.402212,-0.17639 z m 10.573893,2.66369 c 0.447599,-0.12011 0.589035,-0.4057 0.686125,-1.38544 0.210299,-2.12215 2.866317,-7.592551 3.843281,-7.915721 0.461595,-0.15269 0.419513,0.65979 -0.199238,3.846681 -0.728963,3.75454 -0.703031,4.69262 0.145084,5.24833 0.564599,0.36994 0.836648,0.39236 1.68313,0.13875 l 1.009679,-0.30251 -0.284942,-1.06754 c -0.234211,-0.87747 -0.173207,-1.61232 0.342635,-4.12739 0.807091,-3.935101 0.84575,-5.308181 0.163499,-5.807211 -1.254154,-0.91735 -3.040609,-0.10847 -4.47959,2.02829 l -0.92482,1.37328 0.04858,-1.65444 c 0.05652,-1.92459 -0.260864,-2.29736 -1.722507,-2.02316 -0.928621,0.17421 -0.931908,0.17986 -1.089953,1.87233 -0.131786,1.41127 -1.193647,6.763711 -1.666338,8.399401 -0.155714,0.53882 0.768361,1.53634 1.418527,1.53127 0.254661,-0.002 0.716741,-0.0717 1.026844,-0.15492 z m 28.489465,0.009 c 0.215041,-0.0825 0.334825,-0.3576 0.267622,-0.61458 -0.264275,-1.01059 2.10517,-6.5947 3.361965,-7.923201 1.059508,-1.11996 1.201034,-0.36539 0.548441,2.924111 -0.325693,1.64171 -0.554102,3.5185 -0.507576,4.17064 0.07284,1.02096 0.185693,1.22107 0.812197,1.44014 0.466822,0.16324 0.988387,0.16261 1.455209,-0.002 0.697639,-0.24562 0.724339,-0.32127 0.648322,-1.83702 -0.04507,-0.89863 0.15296,-2.66556 0.458875,-4.09438 0.8999,-4.203111 0.627877,-5.556251 -1.116975,-5.556251 -1.428585,0 -2.649046,1.05186 -4.144399,3.57187 -0.290543,0.489631 -0.302608,0.479751 -0.161492,-0.13229 0.08388,-0.3638 0.350541,-1.75584 0.592579,-3.09342 0.484819,-2.67926 0.333043,-3.25658 -0.856145,-3.25658 -0.89579,0 -2.026644,0.48676 -1.838416,0.79132 0.202254,0.32725 -0.396856,3.95293 -1.495653,9.051351 -0.692125,3.21147 -0.778953,3.96102 -0.498052,4.29948 0.336035,0.4049 1.717987,0.55047 2.473498,0.26055 z m 12.720299,-1.12422 c 0.419744,-0.39092 1.104354,-1.2401 1.521354,-1.88705 l 0.758184,-1.17628 v 1.55232 c 0,1.83406 0.464895,2.52003 1.707882,2.52003 1.230865,0 1.473058,-0.39086 1.297984,-2.09476 -0.163181,-1.58814 0.422329,-5.624151 1.128384,-7.778111 0.229669,-0.70065 0.33894,-1.35255 0.242827,-1.44866 -0.09611,-0.0961 -0.673791,-0.15599 -1.283727,-0.13306 -0.609936,0.0229 -1.3471,0.0507 -1.638142,0.0618 -0.291041,0.011 -1.03193,-0.0526 -1.646418,-0.14148 -2.262494,-0.32718 -4.577907,1.63993 -5.790823,4.919721 -0.647841,1.75179 -0.653528,5.32777 -0.0096,6.04132 0.913139,1.01187 2.337255,0.84469 3.712103,-0.43576 z m -0.983657,-1.54862 c -0.300387,-0.30039 -0.188555,-2.53244 0.200014,-3.99207 0.787895,-2.959671 1.929498,-3.867371 3.404602,-2.707061 l 0.70937,0.55799 -0.691902,1.372831 c -0.945958,1.8769 -2.943634,4.9447 -3.219871,4.9447 -0.124203,0 -0.305199,-0.0794 -0.402213,-0.17639 z m 12.666845,2.3249 c 2.18156,-0.99095 3.26161,-3.31474 2.37418,-5.10822 -0.2386,-0.48221 -1.02169,-1.32504 -1.7402,-1.87296 -1.01422,-0.773421 -1.30638,-1.160991 -1.30638,-1.733021 0,-1.48491 1.28228,-1.82827 2.52536,-0.67623 l 0.75054,0.69558 0.61101,-0.71033 c 0.75811,-0.88136 0.76091,-1.075 0.023,-1.59187 -1.27297,-0.89162 -4.6357,-0.24862 -5.85161,1.11891 -0.65954,0.74178 -0.97102,2.27502 -0.67787,3.336721 0.15072,0.54586 0.7354,1.28961 1.56119,1.98593 1.42186,1.19893 1.80543,2.03471 1.33618,2.9115 -0.41212,0.77006 -1.92117,0.75568 -2.64871,-0.0252 -0.29671,-0.31848 -0.53947,-0.67567 -0.53947,-0.79375 0,-0.46664 -0.80546,-0.17822 -1.20494,0.43146 -0.567927,0.86678 -0.396165,1.78059 0.41119,2.18759 0.95877,0.48333 3.14017,0.40554 4.37657,-0.15607 z m 13.9814,-0.77628 c 0.41974,-0.39092 1.10435,-1.2401 1.52135,-1.88705 l 0.75818,-1.17628 v 1.55232 c 0,1.83406 0.4649,2.52003 1.70789,2.52003 1.23086,0 1.47305,-0.39086 1.29798,-2.09476 -0.16318,-1.58814 0.42233,-5.624151 1.12838,-7.778111 0.22967,-0.70065 0.33894,-1.35255 0.24283,-1.44866 -0.0961,-0.0961 -0.67379,-0.15599 -1.28373,-0.13306 -0.60993,0.0229 -1.3471,0.0507 -1.63814,0.0618 -0.29104,0.011 -1.03193,-0.0526 -1.64642,-0.14148 -2.26249,-0.32718 -4.5779,1.63993 -5.79082,4.919721 -0.64784,1.75179 -0.65353,5.32777 -0.01,6.04132 0.91314,1.01187 2.33725,0.84469 3.7121,-0.43576 z m -0.98366,-1.54862 c -0.30039,-0.30039 -0.18856,-2.53244 0.20001,-3.99207 0.7879,-2.959671 1.9295,-3.867371 3.4046,-2.707061 l 0.70937,0.55799 -0.6919,1.372831 c -0.94596,1.8769 -2.94363,4.9447 -3.21987,4.9447 -0.1242,0 -0.3052,-0.0794 -0.40221,-0.17639 z m 16.16163,2.65546 c 0.52807,-0.14152 0.59529,-0.32791 0.59511,-1.65003 -2.9e-4,-2.04072 1.08426,-7.448181 1.35687,-6.765271 0.11247,0.28175 0.46482,1.680041 0.78299,3.107311 0.31818,1.42727 0.77206,2.83406 1.00862,3.12621 0.74165,0.91589 1.70754,0.28832 2.78422,-1.80898 1.1302,-2.20155 3.40333,-5.697291 3.23217,-4.970601 -0.0685,0.29104 -0.4499,2.281611 -0.84746,4.423491 -0.79076,4.26032 -0.72712,4.72274 0.64488,4.68604 1.43567,-0.0384 1.73853,-0.32774 1.66636,-1.59197 -0.0822,-1.44048 0.51355,-4.92484 1.55194,-9.076291 0.87542,-3.49988 0.81097,-3.86523 -0.68177,-3.86523 -1.1437,0 -1.70903,0.23251 -1.70903,0.7029 0,0.20994 -0.19257,0.76275 -0.42794,1.22847 -0.70299,1.39103 -4.38653,7.064461 -4.58667,7.064461 -0.10192,0 -0.58001,-1.75617 -1.06243,-3.902601 -1.13645,-5.05652 -1.15161,-5.09412 -2.05235,-5.08933 -0.40379,0.002 -1.02931,0.15324 -1.39006,0.33578 -0.5546,0.28061 -0.64539,0.49455 -0.58781,1.38516 0.039,0.6038 -0.49964,3.30173 -1.26232,6.322171 -0.73173,2.89788 -1.33042,5.47757 -1.33042,5.73264 0,0.69253 1.00746,0.9561 2.3151,0.60567 z m 22.84268,-0.43595 c 0.49191,-0.3315 1.34295,-1.2448 1.89121,-2.02957 l 0.99684,-1.42685 v 1.44983 c 0,1.82249 0.42649,2.45055 1.66406,2.45055 1.3668,0 1.78494,-0.44642 1.47376,-1.57343 -0.30314,-1.09785 0.0444,-3.96951 0.99905,-8.254351 0.36455,-1.63629 0.62469,-3.23148 0.57808,-3.54485 -0.12867,-0.86513 -0.80543,-1.16504 -1.97223,-0.87399 -0.99186,0.24741 -1.00385,0.26605 -1.09065,1.69492 -0.0483,0.79462 -0.13049,1.48748 -0.1827,1.5397 -0.0522,0.0522 -0.57886,-0.0501 -1.17032,-0.22726 -2.74701,-0.82303 -5.73968,2.09429 -6.64538,6.478051 -0.78866,3.81726 0.9603,6.00063 3.45828,4.31725 z m -0.55153,-3.33817 c 0,-2.62151 1.43311,-5.848701 2.59727,-5.848701 0.65506,0 1.63606,0.74732 1.63606,1.24635 0,0.46611 -1.54435,3.353531 -2.62056,4.899561 -0.3777,0.5426 -0.89509,0.98908 -1.14975,0.99219 -0.37868,0.005 -0.46302,-0.23026 -0.46302,-1.2894 z m 20.48935,3.69484 c 1.39086,-0.22825 2.5294,-1.18434 2.5294,-2.12407 0,-0.45815 -0.0766,-0.46545 -1.23268,-0.11753 -0.67797,0.20404 -1.71977,0.36915 -2.3151,0.36693 -2.00794,-0.008 -1.98754,0.15728 -0.75802,-6.123191 0.79751,-4.07368 1.02372,-5.72152 0.81927,-5.96787 -0.34251,-0.4127 -1.18726,-0.43594 -2.25948,-0.0622 -0.79476,0.27705 -0.79841,0.2877 -0.93052,2.71197 -0.0817,1.50018 -0.51757,4.018321 -1.1361,6.564231 -0.55191,2.27172 -0.92859,4.32555 -0.83706,4.56407 0.13739,0.35804 0.57155,0.43091 2.48982,0.41789 1.27787,-0.009 2.91159,-0.11229 3.63047,-0.23027 z m 23.81798,-0.13447 c 1.50702,-0.45355 2.52392,-1.33153 2.52392,-2.17915 0,-0.33843 -0.0445,-0.61534 -0.099,-0.61534 -0.0544,0 -0.63718,0.30081 -1.29498,0.66847 -2.08118,1.16319 -3.78735,0.87116 -3.90553,-0.66847 -0.13078,-1.70391 -0.0512,-1.85173 0.99999,-1.85789 3.48019,-0.0204 6.46577,-4.201951 4.4438,-6.223921 -1.36211,-1.36212 -4.75137,-0.44165 -6.57692,1.78619 -1.95711,2.388401 -2.78606,5.802291 -1.84991,7.618541 0.88013,1.70757 3.09433,2.2734 5.7586,1.47157 z m -2.23394,-7.43818 c 0.59513,-1.729771 1.1741,-2.500061 1.87914,-2.500061 1.10191,0 1.17814,2.1627 0.11155,3.164711 -0.32809,0.30823 -1.02921,0.63063 -1.55804,0.71645 l -0.9615,0.15603 z m 19.21131,6.88777 c 1.49382,-0.73086 2.15669,-1.59026 1.84769,-2.39551 -0.15842,-0.41284 -0.21095,-0.41505 -0.63978,-0.027 -0.67642,0.61215 -2.29161,1.23673 -3.19825,1.23673 -0.53786,0 -0.96384,-0.22783 -1.36045,-0.72761 -0.52659,-0.66355 -0.56612,-0.94887 -0.44904,-3.24114 0.21855,-4.279221 1.71284,-7.143751 3.72655,-7.143751 0.74074,0 1.08319,0.18933 1.70341,0.94175 l 0.77627,0.94175 0.6982,-0.82976 c 0.38401,-0.45637 0.69637,-0.96945 0.69414,-1.14019 -0.0196,-1.50266 -3.27045,-2.00507 -5.68449,-0.87853 -2.34653,1.09504 -4.23751,3.77116 -5.02506,7.111471 -0.78717,3.33871 -0.2046,5.92321 1.51044,6.70099 1.25252,0.56803 3.60599,0.32867 5.40037,-0.54924 z m 22.87334,0.0227 c 1.20638,-0.79834 1.83154,-2.00062 1.83154,-3.52231 0,-1.22033 -0.4068,-1.84392 -1.85973,-2.8508 -1.37372,-0.951981 -1.75256,-1.808371 -1.18391,-2.676241 0.5358,-0.81773 1.21902,-0.79111 2.26402,0.0882 l 0.84848,0.71395 0.49474,-0.61097 c 1.16822,-1.44269 0.15319,-2.28677 -2.47517,-2.05831 -2.62936,0.22855 -4.17385,1.71888 -4.17385,4.027501 0,0.85333 0.21412,1.19982 1.5875,2.56895 1.17651,1.17286 1.5875,1.77212 1.5875,2.31469 0,1.60616 -2.06971,1.8296 -3.0753,0.33201 l -0.57866,-0.86178 -0.70018,0.83212 c -1.41422,1.6807 -0.36987,2.70859 2.56792,2.52744 1.37622,-0.0849 2.03316,-0.2739 2.8651,-0.82445 z m 13.74574,0.31292 c 1.59638,-0.80647 2.3733,-2.02627 2.3733,-3.72619 0,-1.28926 -0.0519,-1.38097 -1.58862,-2.80514 -1.14331,-1.059611 -1.5883,-1.661441 -1.5875,-2.147001 0.002,-1.4169 1.08601,-1.69844 2.37208,-0.61629 0.79394,0.66806 0.84304,0.67623 1.34322,0.22358 0.66378,-0.60071 0.66758,-1.61268 0.007,-1.966 -0.67724,-0.36245 -2.62539,-0.34858 -3.74822,0.0267 -1.90391,0.63631 -3.10759,2.52437 -2.76694,4.340171 0.12166,0.6485 0.54469,1.21869 1.50484,2.0283 1.58757,1.33865 1.88675,1.82815 1.66278,2.72053 -0.33322,1.32763 -2.46302,1.20346 -3.18126,-0.18547 l -0.43561,-0.84238 -0.75983,0.85039 c -0.77465,0.86698 -0.90313,1.27979 -0.55733,1.79069 0.72215,1.06695 3.53918,1.22883 5.36171,0.30812 z m -258.0428484,0.16397 c 0.51061,-0.13684 0.59531,-0.33701 0.59531,-1.4068 0,-0.68599 0.41672,-3.31164 0.92605,-5.83477 0.50932,-2.523141 0.92604,-4.626891 0.92604,-4.675011 0,-0.0481 0.58667004,-0.0875 1.30371004,-0.0875 1.09328996,0 1.39221996,-0.11253 1.85207996,-0.69714 0.30161,-0.38343 0.54837,-0.89479 0.54837,-1.13635 0,-0.39515 -0.41808,-0.42851 -4.16718,-0.3326 -4.68413,0.11983 -5.09323,0.2675 -5.09323,1.83853 0,0.76321 0.0761,0.88324 0.46302,0.73023 0.25466,-0.10071 0.8675,-0.25093 1.36187,-0.33383 0.84297,-0.14135 0.88927,-0.11117 0.74472,0.48553 -0.0848,0.34994 -0.40949,2.00547 -0.72159,3.67896 -0.31211,1.673491 -0.78919,3.973621 -1.06018,5.111391 -0.27099,1.13778 -0.42732,2.23911 -0.34739,2.4474 0.1514,0.39452 1.56743,0.507 2.6684,0.21195 z M 151.21043,107.32001 c 0.35348,-0.26029 0.40001,-0.50115 0.21848,-1.13084 -0.26746,-0.92776 -0.0215,-3.00743 0.74413,-6.290851 0.72191,-3.09607 0.70656,-3.57315 -0.12172,-3.78103 -0.36476,-0.0915 -1.07913,-0.0884 -1.5875,0.007 l -0.9243,0.1734 -0.002,1.50937 c -0.001,0.83015 -0.23884,2.497911 -0.5285,3.706121 -0.85083,3.54905 -0.95166,4.99412 -0.39164,5.61293 0.54131,0.59814 1.90545,0.70018 2.59291,0.19396 z m 32.57186,0.074 c 0.61063,-0.23216 0.64808,-0.32696 0.39195,-0.99218 -0.34087,-0.88531 -0.17487,-2.34554 0.73729,-6.485491 0.75162,-3.41137 0.66492,-3.91067 -0.67784,-3.90369 -1.6487,0.009 -1.88547,0.21907 -1.8906,1.68089 -0.003,0.74701 -0.29813,2.608361 -0.6567,4.136331 -0.76213,3.24772 -0.83348,4.81726 -0.24568,5.40506 0.47367,0.47366 1.35643,0.53364 2.34158,0.15908 z m 40.43058,-1.07728 c 0.0798,-0.83012 0.54766,-2.18052 1.23879,-3.57528 1.19566,-2.41294 2.13096,-3.326391 2.90866,-2.840701 0.66166,0.413211 1.69421,-1.1748 1.7231,-2.65 0.0186,-0.94824 -0.0625,-1.12141 -0.55794,-1.19192 -0.87715,-0.12484 -1.81247,0.6279 -3.01468,2.4262 l -1.08639,1.625041 0.18893,-1.322911 c 0.20654,-1.44621 0.20248,-1.39378 0.15751,-2.03269 -0.0405,-0.5762 -0.89938,-0.84003 -2.03871,-0.62629 -0.86703,0.16266 -0.90304,0.21637 -0.90304,1.34708 0,0.64771 -0.3048,2.577081 -0.67733,4.287491 -1.26952,5.82872 -1.26313,5.88795 0.63537,5.88795 h 1.29755 z m 8.75381,1.00324 c 0.35348,-0.26029 0.40001,-0.50115 0.21848,-1.13084 -0.26746,-0.92776 -0.0215,-3.00743 0.74413,-6.290851 0.72191,-3.09607 0.70656,-3.57315 -0.12172,-3.78103 -0.36476,-0.0915 -1.07913,-0.0884 -1.5875,0.007 l -0.9243,0.1734 -0.002,1.50937 c -0.001,0.83015 -0.23885,2.497911 -0.5285,3.706121 -0.85083,3.54905 -0.95166,4.99412 -0.39164,5.61293 0.54131,0.59814 1.90545,0.70018 2.5929,0.19396 z m 14.1617,0.0979 c 0.24296,-0.154 0.37707,-0.96427 0.4263,-2.57564 0.0395,-1.29303 0.33192,-3.42076 0.64982,-4.72829 0.71597,-2.944761 0.66498,-3.938231 -0.20849,-4.061751 -0.34649,-0.049 -1.04213,-0.0118 -1.54588,0.0827 -0.8261,0.15498 -0.89913,0.23863 -0.74489,0.85319 0.098,0.39063 -0.19155,2.52124 -0.67868,4.993231 -0.80872,4.10391 -0.82825,4.34459 -0.40498,4.99058 0.46031,0.70253 1.7422,0.93057 2.5068,0.44595 z m -78.87719,-4.68531 c 0.87311,-0.1333 1.66125,-0.94766 1.66125,-1.71653 0,-0.35782 -0.23706,-0.413 -1.38907,-0.32336 -2.20812,0.17184 -2.50347,0.28991 -3.087,1.23408 -0.30306,0.49036 -0.55102,0.95219 -0.55102,1.02627 0,0.13631 1.80209,0.0183 3.36584,-0.22046 z M -11.48288,97.265749 c 0.0507,-0.1819 0.30418,-0.99887 0.56321,-1.81548 0.5433,-1.71276 0.40478,-2.3517 -0.50983,-2.3517 -0.83831,0 -1.51696,0.26364 -1.35466,0.52625 0.0701,0.11342 0.002,0.88664 -0.15206,1.71827 -0.15374,0.83163 -0.21551,1.67885 -0.13728,1.88272 0.17638,0.45964 1.46454,0.49198 1.59062,0.0399 z m 3.8130316,-1.64959 c 0.33802,-1.08712 0.53935,-2.09831 0.4474,-2.24709 -0.19774,-0.31995 -1.897852,-0.36589 -2.089102,-0.0564 -0.0728,0.11774 -0.21527,1.12977 -0.31669,2.24896 l -0.1844,2.0349 0.7641,-0.002 c 0.718982,-0.002 0.800392,-0.1186 1.378692,-1.97845 z m 269.6264184,0.10975 c 0.68943,-2.14061 0.61052,-2.62899 -0.42385,-2.62329 -1.13392,0.006 -1.30491,0.25612 -1.49883,2.1902 -0.20313,2.02607 -0.11559,2.30366 0.72646,2.30366 0.50249,0 0.68636,-0.28752 1.19622,-1.87057 z m 2.94992,1.40755 c 0.005,-0.25466 0.2341,-1.11623 0.50967,-1.9146 0.58462,-1.69371 0.37136,-2.19136 -0.88602,-2.06766 -0.78899,0.0776 -0.81801,0.12973 -1.13646,2.04023 -0.17974,1.07832 -0.26499,2.06059 -0.18945,2.18282 0.0755,0.12223 0.48751,0.22223 0.91549,0.22223 0.5614,0 0.78054,-0.12896 0.78677,-0.46302 z m -111.91112,-2.99274 c 1.09479,-1.09479 0.24583,-2.30773 -1.39921,-1.99912 -0.80662,0.15132 -0.95869,0.2976 -1.07054,1.02974 -0.0717,0.46935 -0.0107,1.00219 0.13561,1.18409 0.41176,0.51196 1.7286,0.39083 2.33414,-0.21471 z m 32.61675,0.21274 c 0.60014,-0.43883 0.69542,-1.76159 0.15236,-2.11501 -0.23391,-0.15223 -0.83657,-0.19504 -1.36087,-0.0967 -0.81644,0.15316 -0.96399,0.29886 -1.11436,1.10038 -0.0953,0.50811 -0.10098,1.04088 -0.0126,1.18392 0.22909,0.37068 1.79583,0.32197 2.33545,-0.0726 z m 49.1395,-0.21274 c 1.09479,-1.09479 0.24583,-2.30773 -1.39921,-1.99912 -0.80662,0.15132 -0.95869,0.2976 -1.07055,1.02974 -0.0717,0.46935 -0.0107,1.00219 0.13562,1.18409 0.41176,0.51196 1.7286,0.39083 2.33414,-0.21471 z m 14.5699,-0.0298 c 0.12232,-0.19294 0.22422,-0.67019 0.22645,-1.06057 0.005,-0.84477 -0.66389,-1.14215 -2.00333,-0.89087 -0.83892,0.15739 -0.90304,0.24058 -0.90304,1.17166 0,0.55124 0.0893,1.09271 0.19844,1.20328 0.30088,0.30482 2.22827,-0.0241 2.48148,-0.4235 z"
       id="path1" /></g></svg>
